<mxfile host="app.diagrams.net" agent="Mozilla/5.0 (Macintosh; Intel Mac OS X 10_15_7) AppleWebKit/537.36 (KHTML, like Gecko) Chrome/131.0.0.0 Safari/537.36" version="25.0.3">
  <diagram name="Page-1" id="13e1069c-82ec-6db2-03f1-153e76fe0fe0">
    <mxGraphModel dx="2366" dy="650" grid="1" gridSize="10" guides="1" tooltips="1" connect="1" arrows="1" fold="1" page="1" pageScale="1" pageWidth="1100" pageHeight="850" background="none" math="0" shadow="0">
      <root>
        <mxCell id="0" />
        <mxCell id="1" parent="0" />
        <mxCell id="7baba1c4bc27f4b0-2" value="luxuryrecycle" style="shape=umlLifeline;perimeter=lifelinePerimeter;whiteSpace=wrap;html=1;container=1;collapsible=0;recursiveResize=0;outlineConnect=0;rounded=1;shadow=0;comic=0;labelBackgroundColor=none;strokeWidth=1;fontFamily=Verdana;fontSize=12;align=center;" parent="1" vertex="1">
          <mxGeometry x="120" y="80" width="100" height="2950" as="geometry" />
        </mxCell>
        <mxCell id="7baba1c4bc27f4b0-10" value="" style="html=1;points=[];perimeter=orthogonalPerimeter;rounded=0;shadow=0;comic=0;labelBackgroundColor=none;strokeWidth=1;fontFamily=Verdana;fontSize=12;align=center;" parent="7baba1c4bc27f4b0-2" vertex="1">
          <mxGeometry x="45" y="100" width="10" height="860" as="geometry" />
        </mxCell>
        <mxCell id="7baba1c4bc27f4b0-35" value="查询回收单是否有进行中的竞拍单" style="html=1;verticalAlign=bottom;endArrow=block;labelBackgroundColor=none;fontFamily=Verdana;fontSize=12;elbow=vertical;edgeStyle=orthogonalEdgeStyle;curved=1;entryX=1;entryY=0.286;entryPerimeter=0;exitX=1.038;exitY=0.345;exitPerimeter=0;" parent="7baba1c4bc27f4b0-2" edge="1">
          <mxGeometry x="-0.5087" relative="1" as="geometry">
            <mxPoint x="55.000000000000114" y="210.00000000000006" as="sourcePoint" />
            <mxPoint x="59.620000000000005" y="247.91999999999996" as="targetPoint" />
            <Array as="points">
              <mxPoint x="109.62" y="209.90000000000003" />
              <mxPoint x="109.62" y="247.89999999999998" />
            </Array>
            <mxPoint as="offset" />
          </mxGeometry>
        </mxCell>
        <mxCell id="wZEFfsgulWvUyu0J_CY3-9" value="&lt;span style=&quot;background-color: rgb(255, 255, 255);&quot;&gt;根据品类品牌系列查询竞拍配置（&lt;span style=&quot;font-family: &amp;quot;JetBrains Mono&amp;quot;, monospace; font-size: 9.8pt;&quot;&gt;t_luxury_auction_config&lt;/span&gt;）没有配置则通知竞拍失败&lt;/span&gt;&lt;span style=&quot;font-family: &amp;quot;JetBrains Mono&amp;quot;, monospace; font-size: 9.8pt; background-color: rgb(255, 255, 255);&quot;&gt;&lt;font style=&quot;&quot; color=&quot;#ff0000&quot;&gt;luxury_auction_result&lt;/font&gt;&lt;/span&gt;" style="html=1;verticalAlign=bottom;endArrow=block;labelBackgroundColor=none;fontFamily=Verdana;fontSize=12;elbow=vertical;edgeStyle=orthogonalEdgeStyle;curved=1;entryX=1;entryY=0.286;entryPerimeter=0;exitX=1.038;exitY=0.345;exitPerimeter=0;" edge="1" parent="7baba1c4bc27f4b0-2">
          <mxGeometry x="-0.5087" relative="1" as="geometry">
            <mxPoint x="55.000000000000114" y="370.0400000000001" as="sourcePoint" />
            <mxPoint x="59.620000000000005" y="407.96" as="targetPoint" />
            <Array as="points">
              <mxPoint x="109.62" y="369.94000000000005" />
              <mxPoint x="109.62" y="407.94" />
            </Array>
            <mxPoint as="offset" />
          </mxGeometry>
        </mxCell>
        <mxCell id="wZEFfsgulWvUyu0J_CY3-10" value="&lt;div style=&quot;&quot;&gt;&lt;pre style=&quot;font-family: &amp;quot;JetBrains Mono&amp;quot;, monospace; font-size: 9.8pt;&quot;&gt;&lt;font style=&quot;background-color: rgb(255, 255, 255);&quot; color=&quot;#ff0000&quot;&gt;开始竞拍  luxury_auction_start&lt;/font&gt;&lt;/pre&gt;&lt;/div&gt;" style="html=1;verticalAlign=bottom;endArrow=block;labelBackgroundColor=none;fontFamily=Verdana;fontSize=12;elbow=vertical;edgeStyle=orthogonalEdgeStyle;curved=1;entryX=1;entryY=0.286;entryPerimeter=0;exitX=1.038;exitY=0.345;exitPerimeter=0;" edge="1" parent="7baba1c4bc27f4b0-2">
          <mxGeometry x="-0.7894" relative="1" as="geometry">
            <mxPoint x="55.000000000000114" y="140.00000000000006" as="sourcePoint" />
            <mxPoint x="59.620000000000005" y="177.91999999999996" as="targetPoint" />
            <Array as="points">
              <mxPoint x="109.62" y="139.90000000000003" />
              <mxPoint x="109.62" y="177.89999999999998" />
            </Array>
            <mxPoint as="offset" />
          </mxGeometry>
        </mxCell>
        <mxCell id="wZEFfsgulWvUyu0J_CY3-11" value="业务单详情" style="html=1;verticalAlign=bottom;endArrow=open;dashed=1;endSize=8;labelBackgroundColor=none;fontFamily=Verdana;fontSize=12;edgeStyle=elbowEdgeStyle;elbow=vertical;" edge="1" parent="7baba1c4bc27f4b0-2">
          <mxGeometry relative="1" as="geometry">
            <mxPoint x="55" y="320" as="targetPoint" />
            <Array as="points">
              <mxPoint x="130" y="320" />
              <mxPoint x="160" y="320" />
            </Array>
            <mxPoint x="185" y="320" as="sourcePoint" />
          </mxGeometry>
        </mxCell>
        <mxCell id="wZEFfsgulWvUyu0J_CY3-12" value="获取符合资质的商户&lt;div&gt;t_luxury_merchant_relationship&amp;nbsp; &amp;nbsp; &amp;nbsp; &amp;nbsp; &amp;nbsp;t_luxury_merchant_manage&lt;/div&gt;&lt;div&gt;&lt;span style=&quot;background-color: rgb(255, 255, 255); font-family: Menlo-Regular, monospace; font-size: 9.8pt;&quot;&gt;过滤掉禁止出价和不在营业时间的商户&lt;/span&gt;&lt;/div&gt;&lt;div&gt;&lt;span style=&quot;background-color: rgb(255, 255, 255);&quot;&gt;没有商户则通知竞拍失败&lt;/span&gt;&lt;span style=&quot;font-family: &amp;quot;JetBrains Mono&amp;quot;, monospace; font-size: 9.8pt; background-color: rgb(255, 255, 255);&quot;&gt;&lt;font color=&quot;#ff0000&quot;&gt;luxury_auction_result&lt;/font&gt;&lt;/span&gt;&lt;span style=&quot;background-color: rgb(255, 255, 255); font-family: Menlo-Regular, monospace; font-size: 9.8pt;&quot;&gt;&lt;/span&gt;&lt;/div&gt;" style="html=1;verticalAlign=bottom;endArrow=block;labelBackgroundColor=none;fontFamily=Verdana;fontSize=12;elbow=vertical;edgeStyle=orthogonalEdgeStyle;curved=1;entryX=1;entryY=0.286;entryPerimeter=0;exitX=1.038;exitY=0.345;exitPerimeter=0;" edge="1" parent="7baba1c4bc27f4b0-2">
          <mxGeometry x="0.5735" y="-8" relative="1" as="geometry">
            <mxPoint x="55.00000000000012" y="460" as="sourcePoint" />
            <mxPoint x="59.62000000000001" y="497.91999999999996" as="targetPoint" />
            <Array as="points">
              <mxPoint x="109.62" y="459.9000000000001" />
              <mxPoint x="109.62" y="497.9" />
            </Array>
            <mxPoint as="offset" />
          </mxGeometry>
        </mxCell>
        <mxCell id="wZEFfsgulWvUyu0J_CY3-14" value="发布竞拍商品" style="html=1;verticalAlign=bottom;endArrow=block;labelBackgroundColor=none;fontFamily=Verdana;fontSize=12;edgeStyle=elbowEdgeStyle;elbow=horizontal;" edge="1" parent="7baba1c4bc27f4b0-2">
          <mxGeometry relative="1" as="geometry">
            <mxPoint x="55" y="520" as="sourcePoint" />
            <mxPoint x="320" y="520" as="targetPoint" />
          </mxGeometry>
        </mxCell>
        <mxCell id="wZEFfsgulWvUyu0J_CY3-20" value="&lt;span style=&quot;background-color: rgb(255, 255, 255);&quot;&gt;给每个满足条件的商户创建商品竞拍单&amp;nbsp;t_luxury_auction_order（state =&amp;nbsp;&lt;span style=&quot;font-family: &amp;quot;JetBrains Mono&amp;quot;, monospace; font-size: 9.8pt; font-style: italic;&quot;&gt;WAIT_OFFER&lt;/span&gt;&lt;span style=&quot;font-family: &amp;quot;JetBrains Mono&amp;quot;, monospace; font-size: 9.8pt;&quot;&gt;(&lt;/span&gt;&lt;span style=&quot;font-family: &amp;quot;JetBrains Mono&amp;quot;, monospace; font-size: 9.8pt;&quot;&gt;100&lt;/span&gt;&lt;span style=&quot;font-family: &amp;quot;JetBrains Mono&amp;quot;, monospace; font-size: 9.8pt;&quot;&gt;, &lt;/span&gt;&lt;span style=&quot;font-family: &amp;quot;JetBrains Mono&amp;quot;, monospace; font-size: 9.8pt;&quot;&gt;&quot;&lt;/span&gt;&lt;span style=&quot;font-size: 9.8pt; font-family: Menlo-Regular, monospace;&quot;&gt;商品待出价&lt;/span&gt;&lt;span style=&quot;font-family: &amp;quot;JetBrains Mono&amp;quot;, monospace; font-size: 9.8pt;&quot;&gt;&quot;&lt;/span&gt;&lt;span style=&quot;font-family: &amp;quot;JetBrains Mono&amp;quot;, monospace; font-size: 9.8pt;&quot;&gt;, &lt;/span&gt;&lt;span style=&quot;font-family: &amp;quot;JetBrains Mono&amp;quot;, monospace; font-size: 9.8pt;&quot;&gt;&quot;&lt;/span&gt;&lt;span style=&quot;font-size: 9.8pt; font-family: Menlo-Regular, monospace;&quot;&gt;商品待出价&lt;/span&gt;&lt;span style=&quot;font-family: &amp;quot;JetBrains Mono&amp;quot;, monospace; font-size: 9.8pt;&quot;&gt;&quot;&lt;/span&gt;）&lt;/span&gt;" style="html=1;verticalAlign=bottom;endArrow=block;labelBackgroundColor=none;fontFamily=Verdana;fontSize=12;elbow=vertical;edgeStyle=orthogonalEdgeStyle;curved=1;entryX=1;entryY=0.286;entryPerimeter=0;exitX=1.038;exitY=0.345;exitPerimeter=0;" edge="1" parent="7baba1c4bc27f4b0-2">
          <mxGeometry x="-0.5087" relative="1" as="geometry">
            <mxPoint x="55.000000000000114" y="640.0400000000001" as="sourcePoint" />
            <mxPoint x="59.620000000000005" y="677.96" as="targetPoint" />
            <Array as="points">
              <mxPoint x="109.62" y="639.94" />
              <mxPoint x="109.62" y="677.94" />
            </Array>
            <mxPoint as="offset" />
          </mxGeometry>
        </mxCell>
        <mxCell id="wZEFfsgulWvUyu0J_CY3-30" value="&lt;span style=&quot;background-color: rgb(255, 255, 255);&quot;&gt;保存&lt;/span&gt;t_luxury_order_biz_extend&amp;nbsp; 200竞拍中" style="html=1;verticalAlign=bottom;endArrow=block;labelBackgroundColor=none;fontFamily=Verdana;fontSize=12;elbow=vertical;edgeStyle=orthogonalEdgeStyle;curved=1;entryX=1;entryY=0.286;entryPerimeter=0;exitX=1.038;exitY=0.345;exitPerimeter=0;" edge="1" parent="7baba1c4bc27f4b0-2">
          <mxGeometry x="-0.5087" relative="1" as="geometry">
            <mxPoint x="55.000000000000114" y="800.0400000000001" as="sourcePoint" />
            <mxPoint x="59.620000000000005" y="837.96" as="targetPoint" />
            <Array as="points">
              <mxPoint x="109.62" y="799.94" />
              <mxPoint x="109.62" y="837.94" />
            </Array>
            <mxPoint as="offset" />
          </mxGeometry>
        </mxCell>
        <mxCell id="wZEFfsgulWvUyu0J_CY3-33" value="商户出价" style="html=1;verticalAlign=bottom;endArrow=block;labelBackgroundColor=none;fontFamily=Verdana;fontSize=12;edgeStyle=elbowEdgeStyle;elbow=horizontal;" edge="1" parent="7baba1c4bc27f4b0-2">
          <mxGeometry relative="1" as="geometry">
            <mxPoint x="-82.5" y="1010" as="sourcePoint" />
            <mxPoint x="40" y="1010" as="targetPoint" />
          </mxGeometry>
        </mxCell>
        <mxCell id="wZEFfsgulWvUyu0J_CY3-34" value="" style="html=1;points=[];perimeter=orthogonalPerimeter;rounded=0;shadow=0;comic=0;labelBackgroundColor=none;strokeWidth=1;fontFamily=Verdana;fontSize=12;align=center;" vertex="1" parent="7baba1c4bc27f4b0-2">
          <mxGeometry x="45" y="990" width="10" height="720" as="geometry" />
        </mxCell>
        <mxCell id="wZEFfsgulWvUyu0J_CY3-41" value="&lt;span style=&quot;background-color: rgb(255, 255, 255);&quot;&gt;查询竞拍单信息&lt;/span&gt;t_luxury_auction_order&amp;nbsp;&lt;span style=&quot;background-color: rgb(255, 255, 255);&quot;&gt;（state =&amp;nbsp;&lt;/span&gt;&lt;span style=&quot;font-family: &amp;quot;JetBrains Mono&amp;quot;, monospace; font-size: 9.8pt; font-style: italic;&quot;&gt;WAIT_OFFER&lt;/span&gt;&lt;span style=&quot;font-family: &amp;quot;JetBrains Mono&amp;quot;, monospace; font-size: 9.8pt;&quot;&gt;(&lt;/span&gt;&lt;span style=&quot;font-family: &amp;quot;JetBrains Mono&amp;quot;, monospace; font-size: 9.8pt;&quot;&gt;100&lt;/span&gt;&lt;span style=&quot;font-family: &amp;quot;JetBrains Mono&amp;quot;, monospace; font-size: 9.8pt;&quot;&gt;,&amp;nbsp;&lt;/span&gt;&lt;span style=&quot;font-family: &amp;quot;JetBrains Mono&amp;quot;, monospace; font-size: 9.8pt;&quot;&gt;&quot;&lt;/span&gt;&lt;span style=&quot;font-size: 9.8pt; font-family: Menlo-Regular, monospace;&quot;&gt;商品待出价&lt;/span&gt;&lt;span style=&quot;font-family: &amp;quot;JetBrains Mono&amp;quot;, monospace; font-size: 9.8pt;&quot;&gt;&quot;&lt;/span&gt;&lt;span style=&quot;font-family: &amp;quot;JetBrains Mono&amp;quot;, monospace; font-size: 9.8pt;&quot;&gt;,&amp;nbsp;&lt;/span&gt;&lt;span style=&quot;font-family: &amp;quot;JetBrains Mono&amp;quot;, monospace; font-size: 9.8pt;&quot;&gt;&quot;&lt;/span&gt;&lt;span style=&quot;font-size: 9.8pt; font-family: Menlo-Regular, monospace;&quot;&gt;商品待出价&lt;/span&gt;&lt;span style=&quot;font-family: &amp;quot;JetBrains Mono&amp;quot;, monospace; font-size: 9.8pt;&quot;&gt;&quot;&lt;/span&gt;&lt;span style=&quot;background-color: rgb(255, 255, 255);&quot;&gt;）&lt;/span&gt;" style="html=1;verticalAlign=bottom;endArrow=block;labelBackgroundColor=none;fontFamily=Verdana;fontSize=12;elbow=vertical;edgeStyle=orthogonalEdgeStyle;curved=1;entryX=1;entryY=0.286;entryPerimeter=0;exitX=1.038;exitY=0.345;exitPerimeter=0;" edge="1" parent="7baba1c4bc27f4b0-2">
          <mxGeometry x="-0.5087" relative="1" as="geometry">
            <mxPoint x="55.000000000000114" y="1170.04" as="sourcePoint" />
            <mxPoint x="59.620000000000005" y="1207.96" as="targetPoint" />
            <Array as="points">
              <mxPoint x="109.62" y="1169.94" />
              <mxPoint x="109.62" y="1207.94" />
            </Array>
            <mxPoint as="offset" />
          </mxGeometry>
        </mxCell>
        <mxCell id="7baba1c4bc27f4b0-4" value="hbl" style="shape=umlLifeline;perimeter=lifelinePerimeter;whiteSpace=wrap;html=1;container=1;collapsible=0;recursiveResize=0;outlineConnect=0;rounded=1;shadow=0;comic=0;labelBackgroundColor=none;strokeWidth=1;fontFamily=Verdana;fontSize=12;align=center;" parent="1" vertex="1">
          <mxGeometry x="540" y="80" width="100" height="2120" as="geometry" />
        </mxCell>
        <mxCell id="wZEFfsgulWvUyu0J_CY3-22" value="" style="html=1;points=[];perimeter=orthogonalPerimeter;rounded=0;shadow=0;comic=0;labelBackgroundColor=none;strokeWidth=1;fontFamily=Verdana;fontSize=12;align=center;" vertex="1" parent="7baba1c4bc27f4b0-4">
          <mxGeometry x="45" y="690" width="10" height="60" as="geometry" />
        </mxCell>
        <mxCell id="wZEFfsgulWvUyu0J_CY3-27" value="&lt;span style=&quot;background-color: rgb(255, 255, 255);&quot;&gt;获取商户下的员工id，并发短信&lt;/span&gt;" style="html=1;verticalAlign=bottom;endArrow=block;labelBackgroundColor=none;fontFamily=Verdana;fontSize=12;edgeStyle=elbowEdgeStyle;elbow=horizontal;" edge="1" parent="7baba1c4bc27f4b0-4">
          <mxGeometry relative="1" as="geometry">
            <mxPoint x="-363.5" y="780.5" as="sourcePoint" />
            <mxPoint x="184" y="780" as="targetPoint" />
            <Array as="points">
              <mxPoint x="10" y="750" />
            </Array>
          </mxGeometry>
        </mxCell>
        <mxCell id="7baba1c4bc27f4b0-5" value="&lt;div style=&quot;&quot;&gt;&lt;pre style=&quot;font-family: &amp;quot;JetBrains Mono&amp;quot;, monospace; font-size: 9.8pt;&quot;&gt;&lt;span style=&quot;background-color: rgb(255, 255, 255);&quot;&gt;zzdsyyauth&lt;/span&gt;&lt;/pre&gt;&lt;/div&gt;" style="shape=umlLifeline;perimeter=lifelinePerimeter;whiteSpace=wrap;html=1;container=1;collapsible=0;recursiveResize=0;outlineConnect=0;rounded=1;shadow=0;comic=0;labelBackgroundColor=none;strokeWidth=1;fontFamily=Verdana;fontSize=12;align=center;" parent="1" vertex="1">
          <mxGeometry x="680" y="80" width="100" height="2110" as="geometry" />
        </mxCell>
        <mxCell id="wZEFfsgulWvUyu0J_CY3-26" value="" style="html=1;points=[];perimeter=orthogonalPerimeter;rounded=0;shadow=0;comic=0;labelBackgroundColor=none;strokeWidth=1;fontFamily=Verdana;fontSize=12;align=center;" vertex="1" parent="7baba1c4bc27f4b0-5">
          <mxGeometry x="45" y="760" width="10" height="60" as="geometry" />
        </mxCell>
        <mxCell id="wZEFfsgulWvUyu0J_CY3-39" value="" style="html=1;points=[];perimeter=orthogonalPerimeter;rounded=0;shadow=0;comic=0;labelBackgroundColor=none;strokeWidth=1;fontFamily=Verdana;fontSize=12;align=center;" vertex="1" parent="7baba1c4bc27f4b0-5">
          <mxGeometry x="45" y="1135" width="10" height="60" as="geometry" />
        </mxCell>
        <mxCell id="7baba1c4bc27f4b0-6" value="&lt;div style=&quot;&quot;&gt;&lt;pre style=&quot;font-family: &amp;quot;JetBrains Mono&amp;quot;, monospace; font-size: 9.8pt;&quot;&gt;&lt;span style=&quot;background-color: rgb(255, 255, 255);&quot;&gt;zzuser&lt;/span&gt;&lt;/pre&gt;&lt;/div&gt;" style="shape=umlLifeline;perimeter=lifelinePerimeter;whiteSpace=wrap;html=1;container=1;collapsible=0;recursiveResize=0;outlineConnect=0;rounded=1;shadow=0;comic=0;labelBackgroundColor=none;strokeWidth=1;fontFamily=Verdana;fontSize=12;align=center;" parent="1" vertex="1">
          <mxGeometry x="820" y="80" width="100" height="1960" as="geometry" />
        </mxCell>
        <mxCell id="wZEFfsgulWvUyu0J_CY3-32" value="" style="html=1;points=[];perimeter=orthogonalPerimeter;rounded=0;shadow=0;comic=0;labelBackgroundColor=none;strokeWidth=1;fontFamily=Verdana;fontSize=12;align=center;" vertex="1" parent="7baba1c4bc27f4b0-6">
          <mxGeometry x="45" y="1005" width="10" height="60" as="geometry" />
        </mxCell>
        <mxCell id="7baba1c4bc27f4b0-7" value="&lt;div style=&quot;&quot;&gt;&lt;pre style=&quot;font-family: &amp;quot;JetBrains Mono&amp;quot;, monospace; font-size: 9.8pt;&quot;&gt;&lt;span style=&quot;background-color: rgb(255, 255, 255);&quot;&gt;merchant&lt;/span&gt;&lt;/pre&gt;&lt;/div&gt;" style="shape=umlLifeline;perimeter=lifelinePerimeter;whiteSpace=wrap;html=1;container=1;collapsible=0;recursiveResize=0;outlineConnect=0;rounded=1;shadow=0;comic=0;labelBackgroundColor=none;strokeWidth=1;fontFamily=Verdana;fontSize=12;align=center;" parent="1" vertex="1">
          <mxGeometry x="960" y="80" width="100" height="1920" as="geometry" />
        </mxCell>
        <mxCell id="wZEFfsgulWvUyu0J_CY3-36" value="" style="html=1;points=[];perimeter=orthogonalPerimeter;rounded=0;shadow=0;comic=0;labelBackgroundColor=none;strokeWidth=1;fontFamily=Verdana;fontSize=12;align=center;" vertex="1" parent="7baba1c4bc27f4b0-7">
          <mxGeometry x="45" y="1090" width="10" height="60" as="geometry" />
        </mxCell>
        <mxCell id="7baba1c4bc27f4b0-8" value="" style="shape=umlLifeline;perimeter=lifelinePerimeter;whiteSpace=wrap;html=1;container=1;collapsible=0;recursiveResize=0;outlineConnect=0;rounded=1;shadow=0;comic=0;labelBackgroundColor=none;strokeWidth=1;fontFamily=Verdana;fontSize=12;align=center;" parent="1" vertex="1">
          <mxGeometry x="-20" y="80" width="100" height="1810" as="geometry" />
        </mxCell>
        <mxCell id="7baba1c4bc27f4b0-9" value="" style="html=1;points=[];perimeter=orthogonalPerimeter;rounded=0;shadow=0;comic=0;labelBackgroundColor=none;strokeWidth=1;fontFamily=Verdana;fontSize=12;align=center;" parent="7baba1c4bc27f4b0-8" vertex="1">
          <mxGeometry x="45" y="980" width="10" height="110" as="geometry" />
        </mxCell>
        <mxCell id="wZEFfsgulWvUyu0J_CY3-1" value="商家" style="shape=umlActor;verticalLabelPosition=bottom;verticalAlign=top;html=1;" vertex="1" parent="1">
          <mxGeometry x="20" y="10" width="20" height="50" as="geometry" />
        </mxCell>
        <mxCell id="wZEFfsgulWvUyu0J_CY3-4" value="&lt;span style=&quot;color: rgb(50, 50, 50); font-family: &amp;quot;Microsoft YaHei&amp;quot;, 微软雅黑, Arial; font-size: 13px; background-color: rgba(255, 255, 255, 0.01);&quot;&gt;zzrecycling&lt;/span&gt;" style="shape=umlLifeline;perimeter=lifelinePerimeter;whiteSpace=wrap;html=1;container=1;collapsible=0;recursiveResize=0;outlineConnect=0;rounded=1;shadow=0;comic=0;labelBackgroundColor=none;strokeWidth=1;fontFamily=Verdana;fontSize=12;align=center;" vertex="1" parent="1">
          <mxGeometry x="260" y="80" width="100" height="2460" as="geometry" />
        </mxCell>
        <mxCell id="wZEFfsgulWvUyu0J_CY3-5" value="" style="html=1;points=[];perimeter=orthogonalPerimeter;rounded=0;shadow=0;comic=0;labelBackgroundColor=none;strokeWidth=1;fontFamily=Verdana;fontSize=12;align=center;" vertex="1" parent="wZEFfsgulWvUyu0J_CY3-4">
          <mxGeometry x="45" y="100" width="10" height="230" as="geometry" />
        </mxCell>
        <mxCell id="7baba1c4bc27f4b0-17" value="查询业务单详情" style="html=1;verticalAlign=bottom;endArrow=block;labelBackgroundColor=none;fontFamily=Verdana;fontSize=12;edgeStyle=elbowEdgeStyle;elbow=vertical;" parent="wZEFfsgulWvUyu0J_CY3-4" edge="1">
          <mxGeometry relative="1" as="geometry">
            <mxPoint x="-85" y="300" as="sourcePoint" />
            <Array as="points">
              <mxPoint x="-80" y="300" />
            </Array>
            <mxPoint x="45" y="300" as="targetPoint" />
          </mxGeometry>
        </mxCell>
        <mxCell id="wZEFfsgulWvUyu0J_CY3-18" value="&lt;div style=&quot;&quot;&gt;&lt;pre style=&quot;font-family: &amp;quot;JetBrains Mono&amp;quot;, monospace; font-size: 9.8pt;&quot;&gt;&lt;span style=&quot;background-color: rgb(255, 255, 255);&quot;&gt;auctionProductId&lt;/span&gt;&lt;/pre&gt;&lt;/div&gt;" style="html=1;verticalAlign=bottom;endArrow=open;dashed=1;endSize=8;labelBackgroundColor=none;fontFamily=Verdana;fontSize=12;edgeStyle=elbowEdgeStyle;elbow=vertical;" edge="1" parent="wZEFfsgulWvUyu0J_CY3-4" source="wZEFfsgulWvUyu0J_CY3-15">
          <mxGeometry x="-0.1293" y="10" relative="1" as="geometry">
            <mxPoint x="-80" y="550" as="targetPoint" />
            <Array as="points">
              <mxPoint x="150" y="550" />
              <mxPoint x="-10" y="540" />
              <mxPoint x="20" y="540" />
            </Array>
            <mxPoint x="45" y="540" as="sourcePoint" />
            <mxPoint x="1" as="offset" />
          </mxGeometry>
        </mxCell>
        <mxCell id="wZEFfsgulWvUyu0J_CY3-24" value="&lt;span style=&quot;background-color: rgb(255, 255, 255);&quot;&gt;如果是hbl商户（Apoll里配置）则通知hbl开始竞拍&lt;/span&gt;" style="html=1;verticalAlign=bottom;endArrow=block;labelBackgroundColor=none;fontFamily=Verdana;fontSize=12;edgeStyle=elbowEdgeStyle;elbow=horizontal;entryX=0.1;entryY=0.317;entryDx=0;entryDy=0;entryPerimeter=0;" edge="1" parent="wZEFfsgulWvUyu0J_CY3-4" target="wZEFfsgulWvUyu0J_CY3-22">
          <mxGeometry relative="1" as="geometry">
            <mxPoint x="-82.5" y="710" as="sourcePoint" />
            <mxPoint x="182.5" y="710" as="targetPoint" />
          </mxGeometry>
        </mxCell>
        <mxCell id="wZEFfsgulWvUyu0J_CY3-35" value="查询商户信息" style="html=1;verticalAlign=bottom;endArrow=block;labelBackgroundColor=none;fontFamily=Verdana;fontSize=12;edgeStyle=elbowEdgeStyle;elbow=horizontal;entryX=0.4;entryY=0.417;entryDx=0;entryDy=0;entryPerimeter=0;" edge="1" parent="wZEFfsgulWvUyu0J_CY3-4" target="wZEFfsgulWvUyu0J_CY3-32">
          <mxGeometry relative="1" as="geometry">
            <mxPoint x="-90" y="1030" as="sourcePoint" />
            <mxPoint x="32.5" y="1030" as="targetPoint" />
          </mxGeometry>
        </mxCell>
        <mxCell id="wZEFfsgulWvUyu0J_CY3-38" value="查询商户入驻信息" style="html=1;verticalAlign=bottom;endArrow=block;labelBackgroundColor=none;fontFamily=Verdana;fontSize=12;edgeStyle=elbowEdgeStyle;elbow=horizontal;entryX=0.1;entryY=0.317;entryDx=0;entryDy=0;entryPerimeter=0;" edge="1" parent="wZEFfsgulWvUyu0J_CY3-4" target="wZEFfsgulWvUyu0J_CY3-36">
          <mxGeometry relative="1" as="geometry">
            <mxPoint x="-80" y="1110" as="sourcePoint" />
            <mxPoint x="619" y="1110" as="targetPoint" />
          </mxGeometry>
        </mxCell>
        <mxCell id="wZEFfsgulWvUyu0J_CY3-7" value="&lt;pre style=&quot;font-size: 9.8pt; font-family: &amp;quot;JetBrains Mono&amp;quot;, monospace;&quot;&gt;&lt;span style=&quot;background-color: rgb(255, 255, 255);&quot;&gt;CHECK_COMPLETE_BUYER_CONFIRMING&lt;span style=&quot;font-size: 9.8pt; white-space-collapse: collapse;&quot;&gt;(&lt;/span&gt;&lt;span style=&quot;font-size: 9.8pt; white-space-collapse: collapse;&quot;&gt;65&lt;/span&gt;&lt;span style=&quot;font-size: 9.8pt; white-space-collapse: collapse;&quot;&gt;,&amp;nbsp;&lt;/span&gt;&lt;span style=&quot;font-size: 9.8pt; white-space-collapse: collapse;&quot;&gt;&quot;&lt;/span&gt;&lt;span style=&quot;font-size: 9.8pt; white-space-collapse: collapse; font-family: Menlo-Regular, monospace;&quot;&gt;检验待报价&lt;/span&gt;&lt;span style=&quot;font-size: 9.8pt; white-space-collapse: collapse;&quot;&gt;&quot;&lt;/span&gt;&lt;span style=&quot;font-size: 9.8pt; white-space-collapse: collapse;&quot;&gt;)&lt;/span&gt;&lt;/span&gt;&lt;/pre&gt;" style="html=1;verticalAlign=bottom;endArrow=open;dashed=1;endSize=8;labelBackgroundColor=none;fontFamily=Verdana;fontSize=12;edgeStyle=elbowEdgeStyle;elbow=horizontal;" edge="1" parent="1">
          <mxGeometry relative="1" as="geometry">
            <mxPoint x="170" y="180" as="targetPoint" />
            <Array as="points">
              <mxPoint x="245" y="180" />
              <mxPoint x="275" y="180" />
            </Array>
            <mxPoint x="300" y="180" as="sourcePoint" />
          </mxGeometry>
        </mxCell>
        <mxCell id="wZEFfsgulWvUyu0J_CY3-15" value="&lt;span style=&quot;color: rgb(50, 50, 50); font-family: &amp;quot;Microsoft YaHei&amp;quot;, 微软雅黑, Arial; font-size: 13px; background-color: rgba(255, 255, 255, 0.01);&quot;&gt;zzyylogic&lt;/span&gt;" style="shape=umlLifeline;perimeter=lifelinePerimeter;whiteSpace=wrap;html=1;container=1;collapsible=0;recursiveResize=0;outlineConnect=0;rounded=1;shadow=0;comic=0;labelBackgroundColor=none;strokeWidth=1;fontFamily=Verdana;fontSize=12;align=center;" vertex="1" parent="1">
          <mxGeometry x="400" y="80" width="100" height="2460" as="geometry" />
        </mxCell>
        <mxCell id="wZEFfsgulWvUyu0J_CY3-16" value="" style="html=1;points=[];perimeter=orthogonalPerimeter;rounded=0;shadow=0;comic=0;labelBackgroundColor=none;strokeWidth=1;fontFamily=Verdana;fontSize=12;align=center;" vertex="1" parent="wZEFfsgulWvUyu0J_CY3-15">
          <mxGeometry x="45" y="500" width="10" height="60" as="geometry" />
        </mxCell>
        <mxCell id="wZEFfsgulWvUyu0J_CY3-40" value="&lt;span style=&quot;background-color: rgb(255, 255, 255);&quot;&gt;查询用户信息&lt;/span&gt;" style="html=1;verticalAlign=bottom;endArrow=block;labelBackgroundColor=none;fontFamily=Verdana;fontSize=12;edgeStyle=elbowEdgeStyle;elbow=horizontal;" edge="1" parent="wZEFfsgulWvUyu0J_CY3-15">
          <mxGeometry relative="1" as="geometry">
            <mxPoint x="-225" y="1150.5" as="sourcePoint" />
            <mxPoint x="322.5" y="1150" as="targetPoint" />
            <Array as="points">
              <mxPoint x="148.5" y="1120" />
            </Array>
          </mxGeometry>
        </mxCell>
        <mxCell id="wZEFfsgulWvUyu0J_CY3-19" value="&lt;span style=&quot;background-color: rgb(255, 255, 255);&quot;&gt;redis中存商品快照信息&lt;/span&gt;" style="html=1;verticalAlign=bottom;endArrow=block;labelBackgroundColor=none;fontFamily=Verdana;fontSize=12;elbow=vertical;edgeStyle=orthogonalEdgeStyle;curved=1;entryX=1;entryY=0.286;entryPerimeter=0;exitX=1.038;exitY=0.345;exitPerimeter=0;" edge="1" parent="1">
          <mxGeometry x="-0.5087" relative="1" as="geometry">
            <mxPoint x="175.0000000000001" y="666.0400000000001" as="sourcePoint" />
            <mxPoint x="179.62" y="703.96" as="targetPoint" />
            <Array as="points">
              <mxPoint x="229.62" y="665.94" />
              <mxPoint x="229.62" y="703.94" />
            </Array>
            <mxPoint as="offset" />
          </mxGeometry>
        </mxCell>
        <mxCell id="wZEFfsgulWvUyu0J_CY3-31" value="&lt;span style=&quot;background-color: rgb(255, 255, 255);&quot;&gt;机器人报价，提醒商家报价&lt;/span&gt;" style="html=1;verticalAlign=bottom;endArrow=block;labelBackgroundColor=none;fontFamily=Verdana;fontSize=12;elbow=vertical;edgeStyle=orthogonalEdgeStyle;curved=1;entryX=1;entryY=0.286;entryPerimeter=0;exitX=1.038;exitY=0.345;exitPerimeter=0;" edge="1" parent="1">
          <mxGeometry x="-0.5087" relative="1" as="geometry">
            <mxPoint x="180.0000000000001" y="950.0400000000001" as="sourcePoint" />
            <mxPoint x="184.62" y="987.96" as="targetPoint" />
            <Array as="points">
              <mxPoint x="234.62" y="949.94" />
              <mxPoint x="234.62" y="987.94" />
            </Array>
            <mxPoint as="offset" />
          </mxGeometry>
        </mxCell>
        <mxCell id="wZEFfsgulWvUyu0J_CY3-37" value="&lt;div style=&quot;&quot;&gt;&lt;pre style=&quot;font-family: &amp;quot;JetBrains Mono&amp;quot;, monospace; font-size: 9.8pt;&quot;&gt;&lt;span style=&quot;background-color: rgb(255, 255, 255);&quot;&gt;商户信息or账户信息&lt;/span&gt;&lt;/pre&gt;&lt;/div&gt;" style="html=1;verticalAlign=bottom;endArrow=open;dashed=1;endSize=8;labelBackgroundColor=none;fontFamily=Verdana;fontSize=12;edgeStyle=elbowEdgeStyle;elbow=vertical;exitX=0.1;exitY=0.8;exitDx=0;exitDy=0;exitPerimeter=0;" edge="1" parent="1" source="wZEFfsgulWvUyu0J_CY3-32">
          <mxGeometry x="0.0732" y="10" relative="1" as="geometry">
            <mxPoint x="175" y="1134.5" as="targetPoint" />
            <Array as="points">
              <mxPoint x="405" y="1134.5" />
              <mxPoint x="245" y="1124.5" />
              <mxPoint x="275" y="1124.5" />
            </Array>
            <mxPoint x="790" y="1134.5" as="sourcePoint" />
            <mxPoint as="offset" />
          </mxGeometry>
        </mxCell>
      </root>
    </mxGraphModel>
  </diagram>
</mxfile>
